<svg width="current" height="current" viewBox="0 0 24 24" fill="currentColor" xmlns="http://www.w3.org/2000/svg">
<path d="M19 10.2788V4.30775C19 4.21792 18.9712 4.14417 18.9135 4.0865C18.8558 4.02883 18.7821 4 18.6923 4H5.30775C5.21792 4 5.14417 4.02883 5.0865 4.0865C5.02883 4.14417 5 4.21792 5 4.30775V10.2788H19ZM5.30775 19.5C4.81058 19.5 4.385 19.323 4.031 18.969C3.677 18.615 3.5 18.1894 3.5 17.6923V4.30775C3.5 3.81058 3.677 3.385 4.031 3.031C4.385 2.677 4.81058 2.5 5.30775 2.5H18.6923C19.1894 2.5 19.615 2.677 19.969 3.031C20.323 3.385 20.5 3.81058 20.5 4.30775V17.6923C20.5 18.1894 20.323 18.615 19.969 18.969C19.615 19.323 19.1894 19.5 18.6923 19.5H17.6923C17.4798 19.5 17.3017 19.4281 17.158 19.2843C17.0142 19.1404 16.9423 18.9623 16.9423 18.7498C16.9423 18.5371 17.0142 18.359 17.158 18.2155C17.3017 18.0718 17.4798 18 17.6923 18H18.6923C18.7821 18 18.8558 17.9712 18.9135 17.9135C18.9712 17.8558 19 17.7821 19 17.6923V11.7788H5V17.6923C5 17.7821 5.02883 17.8558 5.0865 17.9135C5.14417 17.9712 5.21792 18 5.30775 18H6.30775C6.52025 18 6.69833 18.0719 6.842 18.2158C6.98583 18.3596 7.05775 18.5377 7.05775 18.7502C7.05775 18.9629 6.98583 19.141 6.842 19.2845C6.69833 19.4282 6.52025 19.5 6.30775 19.5H5.30775ZM11.9998 21.5C11.7871 21.5 11.609 21.4281 11.4655 21.2843C11.3218 21.1406 11.25 20.9625 11.25 20.75V19.5H10C9.7875 19.5 9.60942 19.4281 9.46575 19.2843C9.32192 19.1404 9.25 18.9623 9.25 18.7498C9.25 18.5371 9.32192 18.359 9.46575 18.2155C9.60942 18.0718 9.7875 18 10 18H11.25V16.75C11.25 16.5375 11.3219 16.3593 11.4658 16.2155C11.6096 16.0718 11.7878 16 12.0003 16C12.2129 16 12.391 16.0718 12.5345 16.2155C12.6782 16.3593 12.75 16.5375 12.75 16.75V18H14C14.2125 18 14.3906 18.0719 14.5343 18.2158C14.6781 18.3596 14.75 18.5377 14.75 18.7502C14.75 18.9629 14.6781 19.141 14.5343 19.2845C14.3906 19.4282 14.2125 19.5 14 19.5H12.75V20.75C12.75 20.9625 12.6781 21.1406 12.5343 21.2843C12.3904 21.4281 12.2123 21.5 11.9998 21.5Z" fill="currentColor"/>
</svg>
