<svg width="current" height="current" viewBox="0 0 24 24" fill="currentColor" xmlns="http://www.w3.org/2000/svg">
<path d="M10.2787 5H4.30775C4.21792 5 4.14417 5.02883 4.0865 5.0865C4.02883 5.14417 4 5.21792 4 5.30775V18.6923C4 18.7821 4.02883 18.8558 4.0865 18.9135C4.14417 18.9712 4.21792 19 4.30775 19H10.2787V5ZM4.30775 20.5C3.81058 20.5 3.385 20.323 3.031 19.969C2.677 19.615 2.5 19.1894 2.5 18.6923V5.30775C2.5 4.81058 2.677 4.385 3.031 4.031C3.385 3.677 3.81058 3.5 4.30775 3.5H17.6923C18.1894 3.5 18.615 3.677 18.969 4.031C19.323 4.385 19.5 4.81058 19.5 5.30775V6.30775C19.5 6.52025 19.4281 6.69833 19.2843 6.842C19.1404 6.98583 18.9623 7.05775 18.7498 7.05775C18.5371 7.05775 18.359 6.98583 18.2155 6.842C18.0718 6.69833 18 6.52025 18 6.30775V5.30775C18 5.21792 17.9712 5.14417 17.9135 5.0865C17.8558 5.02883 17.7821 5 17.6923 5H11.7788V19H17.6923C17.7821 19 17.8558 18.9712 17.9135 18.9135C17.9712 18.8558 18 18.7821 18 18.6923V17.6923C18 17.4798 18.0719 17.3017 18.2158 17.158C18.3596 17.0142 18.5377 16.9423 18.7502 16.9423C18.9629 16.9423 19.141 17.0142 19.2845 17.158C19.4282 17.3017 19.5 17.4798 19.5 17.6923V18.6923C19.5 19.1894 19.323 19.615 18.969 19.969C18.615 20.323 18.1894 20.5 17.6923 20.5H4.30775ZM18.7498 14.75C18.5371 14.75 18.359 14.6781 18.2155 14.5343C18.0718 14.3906 18 14.2125 18 14V12.75H16.75C16.5375 12.75 16.3593 12.6781 16.2155 12.5343C16.0718 12.3904 16 12.2123 16 11.9998C16 11.7871 16.0718 11.609 16.2155 11.4655C16.3593 11.3218 16.5375 11.25 16.75 11.25H18V10C18 9.7875 18.0719 9.60942 18.2158 9.46575C18.3596 9.32192 18.5377 9.25 18.7502 9.25C18.9629 9.25 19.141 9.32192 19.2845 9.46575C19.4282 9.60942 19.5 9.7875 19.5 10V11.25H20.75C20.9625 11.25 21.1406 11.3219 21.2843 11.4658C21.4281 11.6096 21.5 11.7878 21.5 12.0003C21.5 12.2129 21.4281 12.391 21.2843 12.5345C21.1406 12.6782 20.9625 12.75 20.75 12.75H19.5V14C19.5 14.2125 19.4281 14.3906 19.2843 14.5343C19.1404 14.6781 18.9623 14.75 18.7498 14.75Z" fill="currentColor"/>
</svg>
