<svg width="current" height="current" viewBox="0 0 24 24" fill="currentColor" xmlns="http://www.w3.org/2000/svg">
<path d="M10.5349 21.3777L0.418594 11.3511C0.279059 11.2128 0.174408 11.0629 0.10464 10.9016C0.0348727 10.7403 -1.09863e-05 10.5674 -1.09863e-05 10.383C-1.09863e-05 10.0142 0.127896 9.69149 0.38371 9.4149C0.639524 9.1383 0.976733 9 1.39534 9H22.6046C23.0232 9 23.3605 9.1383 23.6163 9.4149C23.8721 9.69149 24 10.0142 24 10.383C24 10.4752 23.8605 10.7979 23.5814 11.3511L13.4651 21.3777C13.2325 21.6082 13 21.7695 12.7674 21.8617C12.5349 21.9539 12.2791 22 12 22C11.7209 22 11.4651 21.9539 11.2325 21.8617C11 21.7695 10.7674 21.6082 10.5349 21.3777Z" fill="currentColor"/>
</svg>
