<svg width="current" height="current" viewBox="0 0 24 24" fill="currentColor" xmlns="http://www.w3.org/2000/svg">
<path d="M5.66611 20C5.47612 20 5.31764 19.9369 5.19066 19.8107C5.06355 19.6846 5 19.5273 5 19.3387V17.9315C5 17.7429 5.06355 17.5856 5.19066 17.4595C5.31764 17.3333 5.47612 17.2702 5.66611 17.2702H18.3339C18.5239 17.2702 18.6824 17.3333 18.8093 17.4595C18.9364 17.5856 19 17.7429 19 17.9315V19.3387C19 19.5273 18.9364 19.6846 18.8093 19.8107C18.6824 19.9369 18.5239 20 18.3339 20H5.66611ZM8.36534 14.878C8.15375 14.878 7.98753 14.7908 7.86668 14.6163C7.74572 14.4419 7.72257 14.2557 7.79724 14.0578L11.2236 5.37994C11.266 5.26555 11.3373 5.1736 11.4374 5.10409C11.5376 5.0347 11.6477 5 11.7677 5H12.2323C12.3599 5 12.4719 5.0347 12.5683 5.10409C12.6646 5.1736 12.734 5.26555 12.7764 5.37994L16.207 14.0479C16.2817 14.2505 16.2574 14.4395 16.1341 14.615C16.0108 14.7904 15.8433 14.878 15.6317 14.878C15.5024 14.878 15.3829 14.8422 15.2732 14.7705C15.1637 14.6987 15.0853 14.5985 15.038 14.4699L14.1993 12.2298H9.79518L8.93363 14.4882C8.88635 14.6121 8.81218 14.7081 8.71111 14.776C8.61003 14.844 8.49478 14.878 8.36534 14.878ZM10.1833 11.1463H13.7883L12.0368 6.53659H11.949L10.1833 11.1463Z" fill="currentColor"/>
</svg>
