<svg width="current" height="current" viewBox="0 0 24 24" fill="currentColor" xmlns="http://www.w3.org/2000/svg">
<path d="M11.2405 9.94996V13.6347C11.2405 13.8474 11.3123 14.0255 11.4558 14.1692C11.5994 14.3127 11.7777 14.3845 11.9905 14.3845C12.2032 14.3845 12.3813 14.3127 12.525 14.1692C12.6685 14.0255 12.7402 13.8474 12.7402 13.6347V9.94996L14.0577 11.2672C14.2064 11.4057 14.383 11.4791 14.5875 11.4875C14.792 11.4958 14.9718 11.4224 15.127 11.2672C15.282 11.1122 15.3595 10.9366 15.3595 10.7405C15.3595 10.5443 15.282 10.3686 15.127 10.2135L11.9905 7.07696L8.873 10.1942C8.72433 10.3429 8.64842 10.5169 8.64525 10.7162C8.64208 10.9157 8.718 11.093 8.873 11.248C9.02817 11.4031 9.20642 11.4807 9.40775 11.4807C9.60892 11.4807 9.78708 11.4031 9.94225 11.248L11.2405 9.94996ZM2.13475 20.2307C1.92192 20.2307 1.74367 20.1589 1.6 20.0152C1.4565 19.8717 1.38475 19.6935 1.38475 19.4807C1.38475 19.2679 1.4565 19.0897 1.6 18.9462C1.74367 18.8025 1.92192 18.7307 2.13475 18.7307H21.8652C22.0781 18.7307 22.2563 18.8025 22.4 18.9462C22.5435 19.0897 22.6152 19.2679 22.6152 19.4807C22.6152 19.6935 22.5435 19.8717 22.4 20.0152C22.2563 20.1589 22.0781 20.2307 21.8652 20.2307H2.13475ZM4.30775 17.7307C3.80258 17.7307 3.375 17.5557 3.025 17.2057C2.675 16.8557 2.5 16.4281 2.5 15.923V5.53846C2.5 5.0333 2.675 4.60571 3.025 4.25571C3.375 3.90571 3.80258 3.73071 4.30775 3.73071H19.6923C20.1974 3.73071 20.625 3.90571 20.975 4.25571C21.325 4.60571 21.5 5.0333 21.5 5.53846V15.923C21.5 16.4281 21.325 16.8557 20.975 17.2057C20.625 17.5557 20.1974 17.7307 19.6923 17.7307H4.30775ZM4.30775 16.2307H19.6923C19.7693 16.2307 19.8398 16.1987 19.9038 16.1347C19.9679 16.0705 20 16 20 15.923V5.53846C20 5.46146 19.9679 5.39096 19.9038 5.32696C19.8398 5.2628 19.7693 5.23071 19.6923 5.23071H4.30775C4.23075 5.23071 4.16025 5.2628 4.09625 5.32696C4.03208 5.39096 4 5.46146 4 5.53846V15.923C4 16 4.03208 16.0705 4.09625 16.1347C4.16025 16.1987 4.23075 16.2307 4.30775 16.2307Z" fill="currentColor"/>
</svg>
