<svg width="current" height="current" viewBox="0 0 24 24" fill="currentColor" xmlns="http://www.w3.org/2000/svg">
<path d="M4.24975 16.75C4.03708 16.75 3.859 16.6781 3.7155 16.5343C3.57183 16.3906 3.5 16.2125 3.5 16V8C3.5 7.7875 3.57192 7.60942 3.71575 7.46575C3.85958 7.32192 4.03775 7.25 4.25025 7.25C4.46292 7.25 4.641 7.32192 4.7845 7.46575C4.92817 7.60942 5 7.7875 5 8V11.25H9.5V8C9.5 7.7875 9.57192 7.60942 9.71575 7.46575C9.85958 7.32192 10.0378 7.25 10.2503 7.25C10.4629 7.25 10.641 7.32192 10.7845 7.46575C10.9282 7.60942 11 7.7875 11 8V16C11 16.2125 10.9281 16.3906 10.7842 16.5343C10.6404 16.6781 10.4622 16.75 10.2497 16.75C10.0371 16.75 9.859 16.6781 9.7155 16.5343C9.57183 16.3906 9.5 16.2125 9.5 16V12.75H5V16C5 16.2125 4.92808 16.3906 4.78425 16.5343C4.64042 16.6781 4.46225 16.75 4.24975 16.75ZM13.9038 16.75C13.6478 16.75 13.4331 16.6634 13.2598 16.4902C13.0866 16.3169 13 16.1023 13 15.8463V13.0578C13 12.5606 13.177 12.135 13.531 11.781C13.885 11.427 14.3106 11.25 14.8077 11.25H18.6923C18.7821 11.25 18.8558 11.2212 18.9135 11.1635C18.9712 11.1058 19 11.0321 19 10.9423V9.05775C19 8.96792 18.9712 8.89417 18.9135 8.8365C18.8558 8.77883 18.7821 8.75 18.6923 8.75H13.75C13.5375 8.75 13.3593 8.67808 13.2155 8.53425C13.0718 8.39042 13 8.21225 13 7.99975C13 7.78708 13.0718 7.609 13.2155 7.4655C13.3593 7.32183 13.5375 7.25 13.75 7.25H18.6923C19.1894 7.25 19.615 7.427 19.969 7.781C20.323 8.135 20.5 8.56058 20.5 9.05775V10.9423C20.5 11.4394 20.323 11.865 19.969 12.219C19.615 12.573 19.1894 12.75 18.6923 12.75H14.8077C14.7179 12.75 14.6442 12.7788 14.5865 12.8365C14.5288 12.8942 14.5 12.9679 14.5 13.0578V15.25H19.75C19.9625 15.25 20.1406 15.3219 20.2843 15.4658C20.4281 15.6096 20.5 15.7878 20.5 16.0003C20.5 16.2129 20.4281 16.391 20.2843 16.5345C20.1406 16.6782 19.9625 16.75 19.75 16.75H13.9038Z" fill="currentColor"/>
</svg>
