<svg width="current" height="current" viewBox="0 0 24 24" fill="currentColor" xmlns="http://www.w3.org/2000/svg">
<path d="M4.24975 16.75C4.03708 16.75 3.859 16.6781 3.7155 16.5343C3.57183 16.3906 3.5 16.2125 3.5 16V8C3.5 7.7875 3.57192 7.60942 3.71575 7.46575C3.85958 7.32192 4.03775 7.25 4.25025 7.25C4.46292 7.25 4.641 7.32192 4.7845 7.46575C4.92817 7.60942 5 7.7875 5 8V11.25H9.5V8C9.5 7.7875 9.57192 7.60942 9.71575 7.46575C9.85958 7.32192 10.0378 7.25 10.2503 7.25C10.4629 7.25 10.641 7.32192 10.7845 7.46575C10.9282 7.60942 11 7.7875 11 8V16C11 16.2125 10.9281 16.3906 10.7842 16.5343C10.6404 16.6781 10.4622 16.75 10.2497 16.75C10.0371 16.75 9.859 16.6781 9.7155 16.5343C9.57183 16.3906 9.5 16.2125 9.5 16V12.75H5V16C5 16.2125 4.92808 16.3906 4.78425 16.5343C4.64042 16.6781 4.46225 16.75 4.24975 16.75ZM13.75 16.75C13.5375 16.75 13.3593 16.6781 13.2155 16.5343C13.0718 16.3904 13 16.2123 13 15.9998C13 15.7871 13.0718 15.609 13.2155 15.4655C13.3593 15.3218 13.5375 15.25 13.75 15.25H18.6923C18.7821 15.25 18.8558 15.2212 18.9135 15.1635C18.9712 15.1058 19 15.0321 19 14.9423V12.75H15.75C15.5375 12.75 15.3593 12.6781 15.2155 12.5342C15.0718 12.3904 15 12.2122 15 11.9997C15 11.7871 15.0718 11.609 15.2155 11.4655C15.3593 11.3218 15.5375 11.25 15.75 11.25H19V9.05775C19 8.96792 18.9712 8.89417 18.9135 8.8365C18.8558 8.77883 18.7821 8.75 18.6923 8.75H13.75C13.5375 8.75 13.3593 8.67808 13.2155 8.53425C13.0718 8.39042 13 8.21225 13 7.99975C13 7.78708 13.0718 7.609 13.2155 7.4655C13.3593 7.32183 13.5375 7.25 13.75 7.25H18.6923C19.1894 7.25 19.615 7.427 19.969 7.781C20.323 8.135 20.5 8.56058 20.5 9.05775V14.9423C20.5 15.4394 20.323 15.865 19.969 16.219C19.615 16.573 19.1894 16.75 18.6923 16.75H13.75Z" fill="currentColor"/>
</svg>
