<svg width="current" height="current" viewBox="0 0 24 24" fill="currentColor" xmlns="http://www.w3.org/2000/svg">
<path d="M7.3655 15.6923H12.9423C13.1999 15.6923 13.415 15.6061 13.5875 15.4338C13.76 15.2613 13.8462 15.0462 13.8462 14.7885V12.7423L16.4288 14.8135C16.6531 14.9942 16.8942 15.0227 17.152 14.899C17.4097 14.7753 17.5385 14.5712 17.5385 14.2865V9.7135C17.5385 9.42883 17.4097 9.22467 17.152 9.101C16.8942 8.97733 16.6531 9.00583 16.4288 9.1865L13.8462 11.2578V9.2115C13.8462 8.95383 13.76 8.73875 13.5875 8.56625C13.415 8.39392 13.1999 8.30775 12.9423 8.30775H7.3655C7.10783 8.30775 6.89275 8.39392 6.72025 8.56625C6.54775 8.73875 6.4615 8.95383 6.4615 9.2115V14.7885C6.4615 15.0462 6.54775 15.2613 6.72025 15.4338C6.89275 15.6061 7.10783 15.6923 7.3655 15.6923ZM4.30775 19.5C3.80258 19.5 3.375 19.325 3.025 18.975C2.675 18.625 2.5 18.1974 2.5 17.6923V6.30775C2.5 5.80258 2.675 5.375 3.025 5.025C3.375 4.675 3.80258 4.5 4.30775 4.5H19.6923C20.1974 4.5 20.625 4.675 20.975 5.025C21.325 5.375 21.5 5.80258 21.5 6.30775V17.6923C21.5 18.1974 21.325 18.625 20.975 18.975C20.625 19.325 20.1974 19.5 19.6923 19.5H4.30775ZM4.30775 18H19.6923C19.7821 18 19.8558 17.9712 19.9135 17.9135C19.9712 17.8558 20 17.7821 20 17.6923V6.30775C20 6.21792 19.9712 6.14417 19.9135 6.0865C19.8558 6.02883 19.7821 6 19.6923 6H4.30775C4.21792 6 4.14417 6.02883 4.0865 6.0865C4.02883 6.14417 4 6.21792 4 6.30775V17.6923C4 17.7821 4.02883 17.8558 4.0865 17.9135C4.14417 17.9712 4.21792 18 4.30775 18Z" fill="currentColor"/>
</svg>
